<?xml version="1.0" encoding="UTF-8"?>
<svg xmlns="http://www.w3.org/2000/svg" xmlns:xlink="http://www.w3.org/1999/xlink" width="300px" height="261px" viewBox="0 0 299 261" version="1.1">
<defs>
<filter id="alpha" filterUnits="objectBoundingBox" x="0%" y="0%" width="100%" height="100%">
  <feColorMatrix type="matrix" in="SourceGraphic" values="0 0 0 0 1 0 0 0 0 1 0 0 0 0 1 0 0 0 1 0"/>
</filter>
<mask id="mask0">
  <g filter="url(#alpha)">
<rect x="0" y="0" width="299" height="261" style="fill:rgb(0%,0%,0%);fill-opacity:0.4;stroke:none;"/>
  </g>
</mask>
<clipPath id="clip1">
  <rect x="0" y="0" width="299" height="261"/>
</clipPath>
<g id="surface5" clip-path="url(#clip1)">
<path style=" stroke:none;fill-rule:nonzero;fill:rgb(50.196078%,82.352941%,93.72549%);fill-opacity:1;" d="M 128.367188 93.417969 C 128.367188 93.417969 144.644531 85.265625 157.863281 98.007812 L 158.398438 98.496094 C 163.925781 94.175781 168.402344 88.652344 171.484375 82.34375 C 174.5625 76.035156 176.167969 69.105469 176.179688 62.082031 C 176.179688 36.335938 155.003906 15.460938 128.875 15.460938 C 102.746094 15.460938 81.574219 36.335938 81.574219 62.082031 C 81.582031 69.125 83.199219 76.074219 86.292969 82.402344 C 89.390625 88.726562 93.886719 94.257812 99.441406 98.578125 C 102.417969 96.390625 116.175781 87.089844 128.367188 93.417969 Z M 128.367188 93.417969 "/>
</g>
<mask id="mask1">
  <g filter="url(#alpha)">
<rect x="0" y="0" width="299" height="261" style="fill:rgb(0%,0%,0%);fill-opacity:0.4;stroke:none;"/>
  </g>
</mask>
<clipPath id="clip2">
  <rect x="0" y="0" width="299" height="261"/>
</clipPath>
<g id="surface8" clip-path="url(#clip2)">
<path style=" stroke:none;fill-rule:nonzero;fill:rgb(50.196078%,82.352941%,93.72549%);fill-opacity:1;" d="M 259.957031 185.746094 C 259.957031 185.746094 269.480469 180.972656 277.222656 188.4375 L 277.53125 188.722656 C 280.769531 186.199219 283.390625 182.96875 285.195312 179.277344 C 287.003906 175.589844 287.945312 171.535156 287.957031 167.425781 C 287.957031 152.355469 275.5625 140.105469 260.265625 140.105469 C 244.972656 140.105469 232.570312 152.332031 232.570312 167.425781 C 232.574219 171.550781 233.523438 175.621094 235.335938 179.324219 C 237.152344 183.027344 239.789062 186.269531 243.042969 188.796875 C 244.773438 187.488281 252.835938 182.046875 259.957031 185.746094 Z M 259.957031 185.746094 "/>
</g>
<mask id="mask2">
  <g filter="url(#alpha)">
<rect x="0" y="0" width="299" height="261" style="fill:rgb(0%,0%,0%);fill-opacity:0.4;stroke:none;"/>
  </g>
</mask>
<clipPath id="clip3">
  <rect x="0" y="0" width="299" height="261"/>
</clipPath>
<g id="surface11" clip-path="url(#clip3)">
<path style=" stroke:none;fill-rule:nonzero;fill:rgb(74.117647%,90.196078%,96.078431%);fill-opacity:1;" d="M 187.359375 143.113281 C 187.359375 143.113281 198.234375 137.660156 207.074219 146.171875 C 207.191406 146.292969 207.308594 146.390625 207.425781 146.503906 C 211.121094 143.617188 214.109375 139.925781 216.167969 135.710938 C 218.226562 131.496094 219.300781 126.863281 219.308594 122.171875 C 219.308594 104.960938 205.152344 91.007812 187.699219 91.007812 C 170.246094 91.007812 156.09375 104.960938 156.09375 122.171875 C 156.101562 126.878906 157.179688 131.523438 159.25 135.75 C 161.320312 139.976562 164.328125 143.671875 168.042969 146.558594 C 170.011719 145.074219 179.214844 138.867188 187.359375 143.113281 Z M 187.359375 143.113281 "/>
</g>
<mask id="mask3">
  <g filter="url(#alpha)">
<rect x="0" y="0" width="299" height="261" style="fill:rgb(0%,0%,0%);fill-opacity:0.6;stroke:none;"/>
  </g>
</mask>
<clipPath id="clip4">
  <rect x="0" y="0" width="299" height="261"/>
</clipPath>
<g id="surface14" clip-path="url(#clip4)">
<path style=" stroke:none;fill-rule:nonzero;fill:rgb(96.078431%,96.078431%,96.078431%);fill-opacity:1;" d="M 145.730469 260.558594 C 197.503906 260.558594 239.472656 257.386719 239.472656 253.472656 C 239.472656 249.558594 197.503906 246.390625 145.730469 246.390625 C 93.957031 246.390625 51.988281 249.558594 51.988281 253.472656 C 51.988281 257.386719 93.957031 260.558594 145.730469 260.558594 Z M 145.730469 260.558594 "/>
</g>
</defs>
<g id="surface1">
<path style="fill:none;stroke-width:0.3;stroke-linecap:round;stroke-linejoin:round;stroke:rgb(57.254902%,59.607843%,60.784314%);stroke-opacity:1;stroke-miterlimit:4;" d="M 137.350779 96.177936 C 132.580098 93.570776 130.392114 95.735303 128.676813 93.570776 C 126.961512 91.40625 133.447494 85.763889 120.4268 80.121528 C 120.4268 80.121528 119.564277 67.975859 101.772902 67.542954 C 83.981527 67.110048 88.761954 79.688622 83.991273 82.723824 C 79.220592 85.763889 77.919497 80.987338 73.168308 84.02254 C 68.412247 87.062605 70.570992 93.137871 66.662834 94.003682 C 62.75955 94.869492 57.550298 90.10267 52.750379 93.137871 C 47.945587 96.177936 47.969952 98.775368 45.791715 98.775368 C 43.608604 98.775368 39.281368 97.043747 36.674305 98.775368 C 34.072115 100.506989 31.041101 102.681244 31.041101 102.681244 L 140.825238 102.681244 C 140.825238 102.681244 142.12146 98.775368 137.350779 96.177936 Z M 137.350779 96.177936 " transform="matrix(0.801609,0,0,0.803077,0,0)"/>
<path style="fill:none;stroke-width:0.3;stroke-linecap:round;stroke-linejoin:round;stroke:rgb(57.254902%,59.607843%,60.784314%);stroke-opacity:1;stroke-miterlimit:4;" d="M 72.417864 94.39281 C 71.794118 94.738162 71.146008 95.0446 70.478405 95.302398 " transform="matrix(0.801609,0,0,0.803077,0,0)"/>
<path style="fill:none;stroke-width:0.3;stroke-linecap:round;stroke-linejoin:round;stroke:rgb(57.254902%,59.607843%,60.784314%);stroke-opacity:1;stroke-miterlimit:4;" d="M 95.896047 74.119223 C 94.819111 74.600769 93.873746 75.335249 93.137921 76.254565 C 92.402096 77.178745 91.895302 78.258576 91.661397 79.416233 C 90.886588 83.390206 89.015351 86.041143 86.895589 86.303804 C 84.780701 86.566466 76.847434 85.768753 75.507355 88.687216 C 75.146752 89.538434 74.888482 90.428565 74.737419 91.343017 " transform="matrix(0.801609,0,0,0.803077,0,0)"/>
<path style="fill:none;stroke-width:0.3;stroke-linecap:round;stroke-linejoin:round;stroke:rgb(57.254902%,59.607843%,60.784314%);stroke-opacity:1;stroke-miterlimit:4;" d="M 248.319058 69.644247 C 245.999504 68.364987 244.917694 69.425362 244.064917 68.364987 C 243.217012 67.309477 246.384472 64.502889 240.030061 61.77899 C 240.030061 61.77899 239.606109 55.825326 230.898033 55.596713 C 222.194829 55.363236 224.558241 61.584426 222.185083 63.053385 C 219.811925 64.522345 219.207671 62.207031 216.873498 63.690583 C 214.539324 65.174135 215.601641 68.150967 213.691419 68.574144 C 211.781198 69.002185 209.222865 66.667415 206.883818 68.150967 C 204.549645 69.634519 204.569137 70.918642 203.487328 70.918642 C 202.400645 70.918642 200.300376 70.067424 199.023647 70.918642 C 197.746917 71.769861 196.26552 72.830235 196.26552 72.830235 L 250.01974 72.830235 C 250.01974 72.830235 250.653232 70.918642 248.319058 69.644247 Z M 248.319058 69.644247 " transform="matrix(0.801609,0,0,0.803077,0,0)"/>
<path style="fill:none;stroke-width:0.3;stroke-linecap:round;stroke-linejoin:round;stroke:rgb(57.254902%,59.607843%,60.784314%);stroke-opacity:1;stroke-miterlimit:4;" d="M 216.517768 68.768708 C 216.210768 68.943816 215.894022 69.089739 215.56753 69.22107 " transform="matrix(0.801609,0,0,0.803077,0,0)"/>
<path style="fill:none;stroke-width:0.3;stroke-linecap:round;stroke-linejoin:round;stroke:rgb(57.254902%,59.607843%,60.784314%);stroke-opacity:1;stroke-miterlimit:4;" d="M 228.018081 58.841071 C 227.491796 59.079412 227.028859 59.439356 226.668256 59.886853 C 226.307653 60.339215 226.059129 60.869403 225.942177 61.433639 C 225.557209 63.37928 224.645955 64.677996 223.622622 64.804463 C 222.604162 64.926066 218.700878 64.546665 218.052767 65.971848 C 217.882212 66.390161 217.760386 66.82793 217.687291 67.280292 " transform="matrix(0.801609,0,0,0.803077,0,0)"/>
<path style="fill:none;stroke-width:0.3;stroke-linecap:round;stroke-linejoin:round;stroke:rgb(57.254902%,59.607843%,60.784314%);stroke-opacity:1;stroke-miterlimit:4;" d="M 336.340314 44.044465 C 334.537299 43.057052 333.718632 43.874222 333.070522 43.057052 C 332.417538 42.235019 334.863791 40.109405 329.976158 37.983791 C 329.976158 37.983791 329.649666 33.406669 322.939525 33.236425 C 316.229384 33.066182 318.0324 37.823276 316.229384 38.96634 C 314.431242 40.109405 313.90983 38.31455 312.140925 39.462479 C 310.372021 40.605544 311.156577 42.891673 309.689799 43.227296 C 308.223022 43.558055 306.249451 41.748608 304.446436 42.891673 C 302.648294 44.039601 302.653167 45.017286 301.8345 45.017286 C 301.015834 45.017286 299.373628 44.37036 298.394152 45.017286 C 297.409804 45.669076 296.269518 46.495974 296.269518 46.495974 L 337.670647 46.495974 C 337.670647 46.495974 338.138456 45.017286 336.340314 44.044465 Z M 336.340314 44.044465 " transform="matrix(0.801609,0,0,0.803077,0,0)"/>
<path style="fill:none;stroke-width:0.3;stroke-linecap:round;stroke-linejoin:round;stroke:rgb(57.254902%,59.607843%,60.784314%);stroke-opacity:1;stroke-miterlimit:4;" d="M 311.843672 43.373219 C 311.609767 43.50455 311.366116 43.616424 311.117592 43.713706 " transform="matrix(0.801609,0,0,0.803077,0,0)"/>
<path style="fill:none;stroke-width:0.3;stroke-linecap:round;stroke-linejoin:round;stroke:rgb(57.254902%,59.607843%,60.784314%);stroke-opacity:1;stroke-miterlimit:4;" d="M 320.707684 35.726847 C 320.298351 35.906819 319.942621 36.184073 319.664859 36.529424 C 319.382225 36.874776 319.192177 37.28336 319.104463 37.72113 C 318.802336 39.219274 318.110368 40.216415 317.306321 40.318561 C 316.502273 40.420708 313.515115 40.119133 313.013195 41.218421 C 312.876751 41.539452 312.784163 41.875075 312.735433 42.220426 " transform="matrix(0.801609,0,0,0.803077,0,0)"/>
<path style="fill:none;stroke-width:0.3;stroke-linecap:round;stroke-linejoin:round;stroke:rgb(57.254902%,59.607843%,60.784314%);stroke-opacity:1;stroke-miterlimit:4;" d="M 307.70161 43.008411 L 310.571815 43.008411 " transform="matrix(0.801609,0,0,0.803077,0,0)"/>
<path style="fill:none;stroke-width:0.3;stroke-linecap:round;stroke-linejoin:round;stroke:rgb(57.254902%,59.607843%,60.784314%);stroke-opacity:1;stroke-miterlimit:4;" d="M 333.065649 43.032732 L 352.396896 43.032732 C 352.396896 43.032732 353.941641 38.392376 348.245088 35.255029 C 342.543661 32.117681 339.951218 34.73457 337.875314 32.161458 C 335.804283 29.588347 343.620597 22.783465 328.051317 16.051545 C 328.051317 16.051545 327.013365 1.532193 305.752404 1.011734 C 284.491443 0.496139 290.197742 15.531085 284.491443 19.159707 C 278.785143 22.783465 277.230652 17.087599 271.534098 20.706492 C 265.837544 24.320522 268.444607 31.597222 263.756767 32.633276 C 259.073801 33.669331 252.865581 27.992921 247.164154 31.597222 C 241.4676 35.201524 241.462727 38.334007 238.870284 38.334007 C 236.282713 38.334007 231.092953 36.261898 227.979097 38.334007 C 224.860368 40.406115 221.234845 42.969498 221.234845 42.969498 L 304.422071 42.969498 " transform="matrix(0.801609,0,0,0.803077,0,0)"/>
<path style="fill:none;stroke-width:0.3;stroke-linecap:round;stroke-linejoin:round;stroke:rgb(57.254902%,59.607843%,60.784314%);stroke-opacity:1;stroke-miterlimit:4;" d="M 270.666702 33.095366 C 269.92113 33.513679 269.146321 33.883351 268.35202 34.194654 " transform="matrix(0.801609,0,0,0.803077,0,0)"/>
<path style="fill:none;stroke-width:0.3;stroke-linecap:round;stroke-linejoin:round;stroke:rgb(57.254902%,59.607843%,60.784314%);stroke-opacity:1;stroke-miterlimit:4;" d="M 273.483304 29.46188 C 273.648986 28.372321 273.94624 27.307082 274.365319 26.28562 C 275.949049 22.807786 285.441681 23.751422 287.970775 23.435255 C 290.499869 23.114224 292.717091 19.952556 293.672202 15.20519 C 293.949963 13.823785 294.554217 12.529933 295.436233 11.430645 C 296.318248 10.331358 297.448788 9.455819 298.735263 8.881855 " transform="matrix(0.801609,0,0,0.803077,0,0)"/>
<path style=" stroke:none;fill-rule:nonzero;fill:rgb(89.803922%,95.294118%,97.647059%);fill-opacity:1;" d="M 128.367188 93.417969 C 128.367188 93.417969 144.644531 85.265625 157.863281 98.007812 L 158.398438 98.496094 C 163.925781 94.175781 168.402344 88.652344 171.484375 82.34375 C 174.5625 76.035156 176.167969 69.105469 176.179688 62.082031 C 176.179688 36.335938 155.003906 15.460938 128.875 15.460938 C 102.746094 15.460938 81.574219 36.335938 81.574219 62.082031 C 81.582031 69.125 83.199219 76.074219 86.292969 82.402344 C 89.390625 88.726562 93.886719 94.257812 99.441406 98.578125 C 102.417969 96.390625 116.175781 87.089844 128.367188 93.417969 Z M 128.367188 93.417969 "/>
<use xlink:href="#surface5" mask="url(#mask0)"/>
<path style=" stroke:none;fill-rule:nonzero;fill:rgb(97.647059%,97.647059%,97.647059%);fill-opacity:1;" d="M 112.03125 83.457031 L 127.566406 88.679688 L 126.816406 243.230469 L 130.675781 243.230469 L 129.835938 81.460938 L 141.859375 74.765625 L 159.09375 76.714844 L 143.660156 73.765625 L 162.605469 63.21875 L 151 68.90625 L 152.738281 63.386719 L 160.554688 57.203125 L 153.234375 61.800781 L 155.429688 54.855469 L 150.304688 67.234375 L 146.003906 62.027344 L 148.402344 53.972656 L 145.261719 61.125 L 140.203125 55.003906 L 149.679688 68.742188 L 149.257812 69.753906 L 129.777344 79.296875 L 129.308594 60.871094 L 135.121094 54.148438 L 152.214844 49.71875 L 145.273438 50.925781 L 148.550781 47.230469 L 143.957031 51.148438 L 136.613281 52.421875 L 145.035156 42.679688 L 138.355469 49.128906 L 138.882812 40.921875 L 137.308594 50.140625 L 129.234375 57.933594 L 128.875 43.988281 L 128.632812 52.359375 L 125.726562 47.410156 L 126.828125 41.425781 L 133.027344 35.488281 L 127.152344 39.699219 L 128.929688 30.0625 L 124.785156 45.808594 L 120.871094 39.160156 L 123.542969 44.503906 L 116.769531 42.386719 L 124.292969 46.011719 L 128.570312 54.574219 L 128.167969 68.140625 L 119.1875 61.207031 L 116.949219 55.644531 L 117.941406 47.375 L 116.1875 53.679688 L 116.316406 54.074219 L 112.382812 44.292969 L 117.917969 60.21875 L 109.453125 53.679688 L 120.125 63.335938 L 104.035156 62.335938 L 112.847656 63.601562 L 101.984375 66.589844 L 115.058594 63.914062 L 121.835938 64.886719 L 128.097656 70.550781 L 127.648438 86.015625 L 117.097656 83.65625 L 107.109375 71.289062 L 112.414062 78.777344 L 100.082031 75.691406 L 113.832031 80.789062 L 115.636719 83.335938 L 103.742188 80.675781 L 109.992188 82.777344 L 97.589844 85.664062 Z M 112.03125 83.457031 "/>
<path style=" stroke:none;fill-rule:nonzero;fill:rgb(74.117647%,90.196078%,96.078431%);fill-opacity:1;" d="M 259.957031 185.746094 C 259.957031 185.746094 269.480469 180.972656 277.222656 188.4375 L 277.53125 188.722656 C 280.769531 186.199219 283.390625 182.96875 285.195312 179.277344 C 287.003906 175.589844 287.945312 171.535156 287.957031 167.425781 C 287.957031 152.355469 275.5625 140.105469 260.265625 140.105469 C 244.972656 140.105469 232.570312 152.332031 232.570312 167.425781 C 232.574219 171.550781 233.523438 175.621094 235.335938 179.324219 C 237.152344 183.027344 239.789062 186.269531 243.042969 188.796875 C 244.773438 187.488281 252.835938 182.046875 259.957031 185.746094 Z M 259.957031 185.746094 "/>
<use xlink:href="#surface8" mask="url(#mask1)"/>
<path style=" stroke:none;fill-rule:nonzero;fill:rgb(97.647059%,97.647059%,97.647059%);fill-opacity:1;" d="M 250.398438 179.917969 L 259.496094 182.980469 L 259.359375 242.800781 L 260.996094 242.800781 L 260.824219 178.75 L 267.863281 174.832031 L 277.953125 175.96875 L 268.917969 174.242188 L 280.011719 168.070312 L 273.210938 171.398438 L 274.234375 168.171875 L 278.808594 164.550781 L 274.527344 167.238281 L 275.808594 163.171875 L 272.808594 170.417969 L 270.292969 167.375 L 271.695312 162.65625 L 269.859375 166.847656 L 266.898438 163.261719 L 272.445312 171.308594 L 272.195312 171.894531 L 260.792969 177.484375 L 260.511719 166.691406 L 263.921875 162.757812 L 273.925781 160.167969 L 269.859375 160.871094 L 271.78125 158.707031 L 269.097656 161.007812 L 264.796875 161.75 L 269.722656 156.046875 L 265.8125 159.820312 L 266.121094 155.015625 L 265.199219 160.417969 L 260.46875 164.980469 L 260.265625 156.816406 L 260.117188 161.714844 L 258.417969 158.8125 L 259.0625 155.3125 L 262.695312 151.835938 L 259.253906 154.300781 L 260.296875 148.65625 L 257.867188 157.875 L 255.578125 153.984375 L 257.140625 157.113281 L 253.175781 155.871094 L 257.582031 158 L 260.078125 163.011719 L 259.851562 170.953125 L 254.59375 166.890625 L 253.28125 163.632812 L 253.863281 158.796875 L 252.835938 162.488281 L 252.910156 162.714844 L 250.605469 156.988281 L 253.84375 166.316406 L 248.894531 162.488281 L 255.140625 168.140625 L 245.71875 167.554688 L 250.882812 168.296875 L 244.519531 170.046875 L 252.171875 168.476562 L 256.144531 169.046875 L 259.808594 172.363281 L 259.539062 181.414062 L 253.367188 180.035156 L 247.515625 172.789062 L 250.621094 177.179688 L 243.402344 175.375 L 251.460938 178.355469 L 252.511719 179.84375 L 245.546875 178.292969 L 249.203125 179.519531 L 241.945312 181.210938 Z M 250.398438 179.917969 "/>
<path style=" stroke:none;fill-rule:nonzero;fill:rgb(74.117647%,90.196078%,96.078431%);fill-opacity:1;" d="M 187.359375 143.113281 C 187.359375 143.113281 198.234375 137.660156 207.074219 146.171875 C 207.191406 146.292969 207.308594 146.390625 207.425781 146.503906 C 211.121094 143.617188 214.109375 139.925781 216.167969 135.710938 C 218.226562 131.496094 219.300781 126.863281 219.308594 122.171875 C 219.308594 104.960938 205.152344 91.007812 187.699219 91.007812 C 170.246094 91.007812 156.09375 104.960938 156.09375 122.171875 C 156.101562 126.878906 157.179688 131.523438 159.25 135.75 C 161.320312 139.976562 164.328125 143.671875 168.042969 146.558594 C 170.011719 145.074219 179.214844 138.867188 187.359375 143.113281 Z M 187.359375 143.113281 "/>
<use xlink:href="#surface11" mask="url(#mask2)"/>
<path style=" stroke:none;fill-rule:nonzero;fill:rgb(97.647059%,97.647059%,97.647059%);fill-opacity:1;" d="M 176.4375 136.457031 L 186.824219 139.945312 L 186.316406 243.230469 L 188.902344 243.230469 L 188.339844 135.117188 L 196.371094 130.644531 L 207.890625 131.949219 L 197.578125 129.976562 L 210.238281 122.929688 L 202.480469 126.726562 L 203.644531 123.039062 L 208.871094 118.910156 L 203.980469 121.984375 L 205.441406 117.339844 L 202.015625 125.609375 L 199.144531 122.132812 L 200.746094 116.75 L 198.644531 121.53125 L 195.265625 117.441406 L 201.601562 126.621094 L 201.316406 127.300781 L 188.300781 133.675781 L 187.984375 121.355469 L 191.871094 116.863281 L 203.292969 113.90625 L 198.648438 114.707031 L 200.84375 112.242188 L 197.777344 114.863281 L 192.867188 115.714844 L 198.496094 109.199219 L 194.035156 113.507812 L 194.386719 108.027344 L 193.332031 114.183594 L 187.933594 119.394531 L 187.695312 110.074219 L 187.53125 115.667969 L 185.59375 112.367188 L 186.328125 108.363281 L 190.46875 104.402344 L 186.539062 107.207031 L 187.730469 100.769531 L 184.960938 111.292969 L 182.34375 106.847656 L 184.128906 110.421875 L 179.605469 109.007812 L 184.632812 111.429688 L 187.488281 117.152344 L 187.222656 126.21875 L 181.222656 121.582031 L 179.722656 117.859375 L 180.390625 112.339844 L 179.214844 116.558594 L 179.300781 116.8125 L 176.671875 110.28125 L 180.367188 120.921875 L 174.714844 116.558594 L 181.84375 123.007812 L 171.089844 122.339844 L 176.984375 123.183594 L 169.71875 125.183594 L 178.457031 123.394531 L 182.988281 124.046875 L 187.179688 127.828125 L 186.875 138.164062 L 179.824219 136.585938 L 173.148438 128.316406 L 176.691406 133.328125 L 168.449219 131.257812 L 177.640625 134.667969 L 178.847656 136.371094 L 170.898438 134.59375 L 175.074219 135.996094 L 166.789062 137.929688 Z M 176.4375 136.457031 "/>
<path style=" stroke:none;fill-rule:nonzero;fill:rgb(13.72549%,19.607843%,32.54902%);fill-opacity:1;" d="M 253.601562 242.929688 C 253.570312 242.929688 253.539062 242.925781 253.507812 242.914062 C 253.476562 242.902344 253.449219 242.886719 253.429688 242.863281 C 253.40625 242.839844 253.386719 242.8125 253.375 242.78125 C 253.359375 242.753906 253.355469 242.722656 253.355469 242.6875 L 253.355469 210.917969 C 253.355469 210.855469 253.382812 210.792969 253.429688 210.746094 C 253.476562 210.703125 253.539062 210.675781 253.601562 210.675781 C 253.667969 210.675781 253.726562 210.703125 253.773438 210.746094 C 253.820312 210.792969 253.84375 210.855469 253.84375 210.917969 L 253.84375 242.6875 C 253.84375 242.722656 253.839844 242.753906 253.828125 242.78125 C 253.816406 242.8125 253.796875 242.839844 253.777344 242.863281 C 253.753906 242.886719 253.726562 242.902344 253.695312 242.914062 C 253.667969 242.925781 253.632812 242.933594 253.601562 242.929688 Z M 253.601562 242.929688 "/>
<path style=" stroke:none;fill-rule:nonzero;fill:rgb(13.72549%,19.607843%,32.54902%);fill-opacity:1;" d="M 253.359375 239.820312 C 252.335938 238.390625 251.039062 237.171875 249.550781 236.238281 C 247.40625 235.046875 243.828125 235.046875 243.828125 235.046875 C 243.828125 235.046875 245.730469 241.96875 253.359375 239.820312 Z M 253.359375 239.820312 "/>
<path style=" stroke:none;fill-rule:nonzero;fill:rgb(13.72549%,19.607843%,32.54902%);fill-opacity:1;" d="M 253.601562 239.820312 C 254.628906 238.390625 255.925781 237.171875 257.414062 236.238281 C 259.558594 235.046875 263.140625 235.046875 263.140625 235.046875 C 263.140625 235.046875 261.230469 241.96875 253.601562 239.820312 Z M 253.601562 239.820312 "/>
<path style=" stroke:none;fill-rule:nonzero;fill:rgb(92.941176%,10.980392%,14.117647%);fill-opacity:1;" d="M 253.359375 231.222656 C 252.332031 229.792969 251.039062 228.574219 249.550781 227.636719 C 247.40625 226.445312 243.828125 226.445312 243.828125 226.445312 C 243.828125 226.445312 245.730469 233.371094 253.359375 231.222656 Z M 253.359375 231.222656 "/>
<path style=" stroke:none;fill-rule:nonzero;fill:rgb(13.72549%,19.607843%,32.54902%);fill-opacity:1;" d="M 253.601562 231.222656 C 254.632812 229.796875 255.925781 228.582031 257.414062 227.652344 C 259.558594 226.457031 263.140625 226.457031 263.140625 226.457031 C 263.140625 226.457031 261.230469 233.371094 253.601562 231.222656 Z M 253.601562 231.222656 "/>
<path style=" stroke:none;fill-rule:nonzero;fill:rgb(13.72549%,19.607843%,32.54902%);fill-opacity:1;" d="M 253.359375 222.621094 C 252.332031 221.191406 251.039062 219.976562 249.550781 219.039062 C 247.40625 217.847656 243.828125 217.847656 243.828125 217.847656 C 243.828125 217.847656 245.730469 224.777344 253.359375 222.621094 Z M 253.359375 222.621094 "/>
<path style=" stroke:none;fill-rule:nonzero;fill:rgb(92.941176%,10.980392%,14.117647%);fill-opacity:1;" d="M 253.601562 222.621094 C 254.632812 221.191406 255.925781 219.976562 257.414062 219.039062 C 259.558594 217.847656 263.140625 217.847656 263.140625 217.847656 C 263.140625 217.847656 261.230469 224.777344 253.601562 222.621094 Z M 253.601562 222.621094 "/>
<path style=" stroke:none;fill-rule:nonzero;fill:rgb(92.941176%,10.980392%,14.117647%);fill-opacity:1;" d="M 253.359375 214.023438 C 252.332031 212.59375 251.039062 211.378906 249.550781 210.441406 C 247.40625 209.25 243.828125 209.25 243.828125 209.25 C 243.828125 209.25 245.730469 216.175781 253.359375 214.023438 Z M 253.359375 214.023438 "/>
<path style=" stroke:none;fill-rule:nonzero;fill:rgb(13.72549%,19.607843%,32.54902%);fill-opacity:1;" d="M 253.601562 214.023438 C 254.632812 212.59375 255.925781 211.378906 257.414062 210.441406 C 259.558594 209.25 263.140625 209.25 263.140625 209.25 C 263.140625 209.25 261.230469 216.175781 253.601562 214.023438 Z M 253.601562 214.023438 "/>
<path style=" stroke:none;fill-rule:nonzero;fill:rgb(13.72549%,19.607843%,32.54902%);fill-opacity:1;" d="M 253.601562 210.917969 C 253.601562 210.917969 251.695312 208.347656 251.59375 205.890625 C 251.496094 203.429688 253.113281 200.238281 253.113281 200.238281 C 253.113281 200.238281 258.957031 205.070312 253.601562 210.917969 Z M 253.601562 210.917969 "/>
<path style=" stroke:none;fill-rule:nonzero;fill:rgb(13.72549%,19.607843%,32.54902%);fill-opacity:1;" d="M 10.039062 243.195312 L 10.039062 228.742188 C 10.039062 228.675781 10.015625 228.617188 9.96875 228.570312 C 9.925781 228.523438 9.863281 228.5 9.796875 228.5 C 9.734375 228.5 9.671875 228.523438 9.628906 228.570312 C 9.582031 228.617188 9.558594 228.675781 9.558594 228.742188 L 9.558594 243.195312 Z M 10.039062 243.195312 "/>
<path style=" stroke:none;fill-rule:nonzero;fill:rgb(13.72549%,19.607843%,32.54902%);fill-opacity:1;" d="M 9.53125 240.46875 C 8.503906 239.039062 7.210938 237.824219 5.71875 236.886719 C 3.574219 235.695312 0 235.695312 0 235.695312 C 0 235.695312 1.902344 242.59375 9.53125 240.46875 Z M 9.53125 240.46875 "/>
<path style=" stroke:none;fill-rule:nonzero;fill:rgb(92.941176%,10.980392%,14.117647%);fill-opacity:1;" d="M 9.773438 240.46875 C 10.800781 239.039062 12.09375 237.824219 13.585938 236.886719 C 15.734375 235.695312 19.3125 235.695312 19.3125 235.695312 C 19.3125 235.695312 17.402344 242.59375 9.773438 240.46875 Z M 9.773438 240.46875 "/>
<path style=" stroke:none;fill-rule:nonzero;fill:rgb(92.941176%,10.980392%,14.117647%);fill-opacity:1;" d="M 9.53125 231.847656 C 8.503906 230.417969 7.210938 229.199219 5.71875 228.261719 C 3.574219 227.070312 0 227.070312 0 227.070312 C 0 227.070312 1.902344 234 9.53125 231.847656 Z M 9.53125 231.847656 "/>
<path style=" stroke:none;fill-rule:nonzero;fill:rgb(13.72549%,19.607843%,32.54902%);fill-opacity:1;" d="M 9.773438 231.847656 C 10.800781 230.417969 12.09375 229.199219 13.585938 228.261719 C 15.734375 227.070312 19.3125 227.070312 19.3125 227.070312 C 19.3125 227.070312 17.402344 234 9.773438 231.847656 Z M 9.773438 231.847656 "/>
<path style=" stroke:none;fill-rule:nonzero;fill:rgb(13.72549%,19.607843%,32.54902%);fill-opacity:1;" d="M 232.421875 228.339844 C 232.421875 228.339844 230.511719 225.769531 230.410156 223.3125 C 230.3125 220.851562 231.929688 217.660156 231.929688 217.660156 C 231.929688 217.660156 237.773438 222.492188 232.421875 228.339844 Z M 232.421875 228.339844 "/>
<path style=" stroke:none;fill-rule:nonzero;fill:rgb(13.72549%,19.607843%,32.54902%);fill-opacity:1;" d="M 274.207031 242.792969 L 274.207031 228.339844 C 274.207031 228.277344 274.179688 228.214844 274.132812 228.167969 C 274.085938 228.125 274.027344 228.097656 273.960938 228.097656 C 273.898438 228.097656 273.835938 228.125 273.789062 228.167969 C 273.746094 228.214844 273.71875 228.277344 273.71875 228.339844 L 273.71875 242.792969 Z M 274.207031 242.792969 "/>
<path style=" stroke:none;fill-rule:nonzero;fill:rgb(92.941176%,10.980392%,14.117647%);fill-opacity:1;" d="M 273.703125 240.070312 C 272.667969 238.640625 271.375 237.425781 269.882812 236.484375 C 267.738281 235.292969 264.164062 235.292969 264.164062 235.292969 C 264.164062 235.292969 266.074219 242.191406 273.703125 240.070312 Z M 273.703125 240.070312 "/>
<path style=" stroke:none;fill-rule:nonzero;fill:rgb(13.72549%,19.607843%,32.54902%);fill-opacity:1;" d="M 273.9375 240.070312 C 274.964844 238.640625 276.261719 237.421875 277.753906 236.484375 C 279.898438 235.292969 283.472656 235.292969 283.472656 235.292969 C 283.472656 235.292969 281.566406 242.191406 273.9375 240.070312 Z M 273.9375 240.070312 "/>
<path style=" stroke:none;fill-rule:nonzero;fill:rgb(13.72549%,19.607843%,32.54902%);fill-opacity:1;" d="M 273.703125 231.445312 C 272.667969 230.015625 271.375 228.800781 269.882812 227.863281 C 267.738281 226.671875 264.164062 226.671875 264.164062 226.671875 C 264.164062 226.671875 266.074219 233.597656 273.703125 231.445312 Z M 273.703125 231.445312 "/>
<path style=" stroke:none;fill-rule:nonzero;fill:rgb(92.941176%,10.980392%,14.117647%);fill-opacity:1;" d="M 273.9375 231.445312 C 274.964844 230.015625 276.261719 228.796875 277.753906 227.863281 C 279.898438 226.671875 283.472656 226.671875 283.472656 226.671875 C 283.472656 226.671875 281.566406 233.597656 273.9375 231.445312 Z M 273.9375 231.445312 "/>
<path style=" stroke:none;fill-rule:nonzero;fill:rgb(13.72549%,19.607843%,32.54902%);fill-opacity:1;" d="M 273.9375 228.339844 C 273.9375 228.339844 272.027344 225.769531 271.933594 223.3125 C 271.839844 220.851562 273.445312 217.660156 273.445312 217.660156 C 273.445312 217.660156 279.289062 222.492188 273.9375 228.339844 Z M 273.9375 228.339844 "/>
<path style="fill:none;stroke-width:0.3;stroke-linecap:round;stroke-linejoin:miter;stroke:rgb(13.72549%,19.607843%,32.54902%);stroke-opacity:1;stroke-miterlimit:10;" d="M 10.681647 302.873189 L 361.689734 302.873189 " transform="matrix(0.801609,0,0,0.803077,0,0)"/>
<path style=" stroke:none;fill-rule:nonzero;fill:rgb(63.921569%,63.921569%,63.921569%);fill-opacity:1;" d="M 188.226562 208.074219 C 186.550781 212.210938 185.722656 216.644531 185.785156 221.105469 C 185.851562 225.570312 186.808594 229.976562 188.597656 234.066406 L 192.402344 242.683594 C 192.480469 242.859375 192.539062 243.039062 192.578125 243.230469 L 189.039062 243.230469 L 185.941406 236.207031 C 183.863281 231.46875 182.753906 226.359375 182.679688 221.183594 C 182.605469 216.011719 183.566406 210.871094 185.503906 206.074219 L 192.445312 189.039062 C 192.675781 188.476562 192.761719 187.871094 192.699219 187.265625 C 192.636719 186.664062 192.429688 186.089844 192.089844 185.585938 C 191.753906 185.082031 191.296875 184.671875 190.765625 184.386719 C 190.230469 184.101562 189.636719 183.953125 189.03125 183.953125 L 173.230469 183.953125 C 171.765625 183.953125 170.582031 185.476562 170.582031 184.015625 C 170.582031 183.3125 170.859375 182.636719 171.359375 182.140625 C 171.855469 181.644531 172.527344 181.363281 173.230469 181.363281 L 186.863281 181.363281 C 188.332031 181.367188 189.78125 181.726562 191.078125 182.421875 C 192.375 183.113281 193.480469 184.117188 194.300781 185.339844 C 195.96875 187.820312 196.289062 188.261719 195.160156 191.039062 Z M 188.226562 208.074219 "/>
<path style=" stroke:none;fill-rule:nonzero;fill:rgb(63.921569%,63.921569%,63.921569%);fill-opacity:1;" d="M 173.222656 243.035156 L 175.316406 243.035156 L 175.316406 167.140625 L 173.222656 167.140625 Z M 173.222656 243.035156 "/>
<path style=" stroke:none;fill-rule:nonzero;fill:rgb(63.921569%,63.921569%,63.921569%);fill-opacity:1;" d="M 22.246094 243.035156 L 24.34375 243.035156 L 24.34375 167.140625 L 22.246094 167.140625 Z M 22.246094 243.035156 "/>
<path style=" stroke:none;fill-rule:nonzero;fill:rgb(74.117647%,74.117647%,74.117647%);fill-opacity:1;" d="M 23.417969 172.914062 L 176.363281 172.914062 L 176.363281 161.894531 L 23.417969 161.894531 Z M 23.417969 172.914062 "/>
<path style=" stroke:none;fill-rule:nonzero;fill:rgb(74.117647%,74.117647%,74.117647%);fill-opacity:1;" d="M 23.417969 186.035156 L 176.363281 186.035156 L 176.363281 175.011719 L 23.417969 175.011719 Z M 23.417969 186.035156 "/>
<path style=" stroke:none;fill-rule:nonzero;fill:rgb(74.117647%,74.117647%,74.117647%);fill-opacity:1;" d="M 23.417969 204.398438 L 187.6875 204.398438 L 187.6875 200.722656 L 23.417969 200.722656 Z M 23.417969 204.398438 "/>
<path style=" stroke:none;fill-rule:nonzero;fill:rgb(52.941176%,52.941176%,52.941176%);fill-opacity:1;" d="M 23.410156 204.398438 L 49.539062 204.398438 L 49.539062 200.722656 L 23.410156 200.722656 Z M 23.410156 204.398438 "/>
<path style=" stroke:none;fill-rule:nonzero;fill:rgb(63.921569%,63.921569%,63.921569%);fill-opacity:1;" d="M 45.988281 189.039062 C 46.214844 188.476562 46.304688 187.871094 46.242188 187.269531 C 46.179688 186.667969 45.972656 186.089844 45.632812 185.585938 C 45.296875 185.085938 44.84375 184.675781 44.3125 184.390625 C 43.777344 184.105469 43.183594 183.953125 42.582031 183.953125 L 23.417969 183.953125 L 23.417969 181.363281 L 40.410156 181.363281 C 41.882812 181.363281 43.328125 181.726562 44.625 182.417969 C 45.921875 183.113281 47.03125 184.113281 47.847656 185.339844 C 49.523438 187.820312 49.84375 188.261719 48.710938 191.039062 L 41.804688 208.074219 C 40.132812 212.210938 39.300781 216.644531 39.367188 221.105469 C 39.429688 225.570312 40.386719 229.976562 42.175781 234.066406 L 45.984375 242.683594 C 46.054688 242.859375 46.113281 243.042969 46.148438 243.230469 L 42.617188 243.230469 L 39.519531 236.207031 C 37.441406 231.46875 36.328125 226.359375 36.253906 221.183594 C 36.179688 216.007812 37.144531 210.871094 39.085938 206.074219 Z M 45.988281 189.039062 "/>
<use xlink:href="#surface14" mask="url(#mask3)"/>
<path style=" stroke:none;fill-rule:nonzero;fill:rgb(0%,51.372549%,76.470588%);fill-opacity:1;" d="M 152.601562 241.65625 C 152.601562 241.65625 150.9375 244.582031 151.074219 246.523438 C 151.210938 248.46875 155.101562 248.753906 155.796875 248.476562 C 156.488281 248.195312 158.714844 242.632812 158.433594 241.242188 C 158.15625 239.851562 153.019531 240.402344 152.601562 241.65625 Z M 152.601562 241.65625 "/>
<path style=" stroke:none;fill-rule:nonzero;fill:rgb(7.843137%,13.72549%,26.27451%);fill-opacity:1;" d="M 142.601562 195.320312 C 142.601562 195.320312 143.429688 213.832031 145.078125 217.050781 C 146.726562 220.273438 153 239.039062 153 239.039062 L 152.585938 241.683594 L 154.109375 242.242188 C 154.109375 242.242188 156.585938 243.074219 158.417969 241.265625 C 160.246094 239.460938 157.308594 215.660156 157.308594 215.660156 L 156.613281 197.289062 Z M 142.601562 195.320312 "/>
<path style=" stroke:none;fill-rule:nonzero;fill:rgb(0%,51.372549%,76.470588%);fill-opacity:1;" d="M 155.515625 242.496094 C 155.144531 244.085938 154.582031 245.625 153.847656 247.085938 C 152.738281 249.171875 152.183594 250.839844 154.964844 251.398438 C 157.746094 251.957031 162.464844 252.230469 164.132812 251.121094 C 165.796875 250.007812 164.960938 244.71875 164.960938 244.71875 C 164.960938 244.71875 159.824219 239.15625 155.515625 242.496094 Z M 155.515625 242.496094 "/>
<path style="fill-rule:nonzero;fill:rgb(13.72549%,19.607843%,32.54902%);fill-opacity:1;stroke-width:0.3;stroke-linecap:round;stroke-linejoin:miter;stroke:rgb(13.72549%,19.607843%,32.54902%);stroke-opacity:1;stroke-miterlimit:10;" d="M 192.791061 245.637273 C 192.791061 245.637273 191.923665 264.52459 191.923665 269.208722 C 191.923665 273.892855 194.871838 297.449713 194.871838 297.449713 L 193.634093 300.742711 L 193.980077 301.958737 L 193.980077 302.994792 C 193.980077 302.994792 194.501489 301.778766 198.487615 302.299225 C 202.478614 302.81482 206.001803 306.66719 206.001803 306.66719 C 206.001803 306.66719 206.869199 301.642571 206.869199 300.081193 C 206.869199 298.519816 206.693771 296.092628 206.693771 295.056573 C 206.693771 294.020519 207.551421 265.390401 207.551421 265.390401 L 210.640912 243.039841 Z M 192.791061 245.637273 " transform="matrix(0.801609,0,0,0.803077,0,0)"/>
<path style="fill-rule:nonzero;fill:rgb(100%,100%,100%);fill-opacity:1;stroke-width:0.3;stroke-linecap:round;stroke-linejoin:miter;stroke:rgb(13.72549%,19.607843%,32.54902%);stroke-opacity:1;stroke-miterlimit:10;" d="M 174.249242 232.119926 L 172.865306 241.823815 C 172.865306 241.823815 177.5434 247.894217 191.061141 248.580056 C 199.437853 248.876766 207.712231 246.644142 214.802467 242.17403 L 212.190531 231.604331 Z M 174.249242 232.119926 " transform="matrix(0.801609,0,0,0.803077,0,0)"/>
<path style=" stroke:none;fill-rule:nonzero;fill:rgb(92.941176%,10.980392%,14.117647%);fill-opacity:1;" d="M 145.519531 147.730469 C 145.519531 147.730469 139.546875 149.539062 139.128906 150.511719 C 138.714844 151.488281 129.265625 167.628906 129.265625 167.628906 L 120.792969 164.320312 L 119.820312 168.214844 C 119.820312 168.214844 128.292969 176.429688 130.101562 176.84375 C 131.910156 177.261719 139.398438 169.050781 139.398438 169.050781 L 137.867188 187.386719 C 137.867188 187.386719 142.171875 191.144531 150.503906 191.144531 C 158.832031 191.144531 164.535156 190.589844 167.03125 189.753906 C 168.492188 189.269531 169.933594 188.710938 171.339844 188.082031 L 168.5625 167.488281 C 168.5625 167.488281 176.617188 175.839844 178.144531 175.976562 C 179.667969 176.113281 191.585938 160.644531 191.585938 160.644531 L 188.820312 156.871094 L 178.285156 163.847656 C 178.285156 163.847656 170.65625 150.929688 168.851562 149.539062 C 167.050781 148.148438 162.320312 147.453125 161.769531 147.171875 C 161.21875 146.894531 145.519531 147.730469 145.519531 147.730469 Z M 145.519531 147.730469 "/>
<path style="fill:none;stroke-width:0.3;stroke-linecap:butt;stroke-linejoin:miter;stroke:rgb(13.72549%,19.607843%,32.54902%);stroke-opacity:1;stroke-miterlimit:10;" d="M 173.903258 210.464934 L 175.194607 197.623698 " transform="matrix(0.801609,0,0,0.803077,0,0)"/>
<path style="fill:none;stroke-width:0.3;stroke-linecap:butt;stroke-linejoin:miter;stroke:rgb(13.72549%,19.607843%,32.54902%);stroke-opacity:1;stroke-miterlimit:10;" d="M 210.294928 208.558205 L 208.399326 197.818262 " transform="matrix(0.801609,0,0,0.803077,0,0)"/>
<path style="fill:none;stroke-width:0.3;stroke-linecap:butt;stroke-linejoin:miter;stroke:rgb(13.72549%,19.607843%,32.54902%);stroke-opacity:1;stroke-miterlimit:10;" d="M 185.194032 211.179957 C 191.221951 211.666367 199.369631 211.78797 207.049501 210.173087 " transform="matrix(0.801609,0,0,0.803077,0,0)"/>
<path style="fill:none;stroke-width:0.3;stroke-linecap:butt;stroke-linejoin:miter;stroke:rgb(13.72549%,19.607843%,32.54902%);stroke-opacity:1;stroke-miterlimit:10;" d="M 175.95967 209.978523 C 175.95967 209.978523 178.854241 210.562216 183.283811 210.999985 " transform="matrix(0.801609,0,0,0.803077,0,0)"/>
<path style="fill:none;stroke-width:0.3;stroke-linecap:butt;stroke-linejoin:miter;stroke:rgb(13.72549%,19.607843%,32.54902%);stroke-opacity:1;stroke-miterlimit:10;" d="M 206.727882 225.952242 C 207.410104 225.791727 208.092326 225.611755 208.789167 225.426919 " transform="matrix(0.801609,0,0,0.803077,0,0)"/>
<path style="fill:none;stroke-width:0.3;stroke-linecap:butt;stroke-linejoin:miter;stroke:rgb(13.72549%,19.607843%,32.54902%);stroke-opacity:1;stroke-miterlimit:10;" d="M 176.344638 225.621483 C 176.344638 225.621483 187.781603 229.994313 204.997962 226.34137 " transform="matrix(0.801609,0,0,0.803077,0,0)"/>
<path style="fill:none;stroke-width:0.3;stroke-linecap:butt;stroke-linejoin:miter;stroke:rgb(13.72549%,19.607843%,32.54902%);stroke-opacity:1;stroke-miterlimit:10;" d="M 192.240411 224.44437 L 191.987014 233.151116 " transform="matrix(0.801609,0,0,0.803077,0,0)"/>
<path style="fill:none;stroke-width:0.3;stroke-linecap:butt;stroke-linejoin:miter;stroke:rgb(13.72549%,19.607843%,32.54902%);stroke-opacity:1;stroke-miterlimit:10;" d="M 192.951871 199.754176 L 192.313506 221.978269 " transform="matrix(0.801609,0,0,0.803077,0,0)"/>
<path style="fill-rule:nonzero;fill:rgb(100%,100%,100%);fill-opacity:1;stroke-width:0.3;stroke-linecap:round;stroke-linejoin:miter;stroke:rgb(13.72549%,19.607843%,32.54902%);stroke-opacity:1;stroke-miterlimit:10;" d="M 185.169667 178.585593 C 185.169667 178.585593 179.107637 181.183025 178.591098 184.476024 C 178.069685 187.769022 182.401795 190.186482 183.956287 191.927832 C 185.510778 193.669181 194.004442 199.374776 194.004442 199.374776 C 194.004442 199.374776 203.019518 188.805077 204.403454 188.114374 C 205.78739 187.428535 207.868167 183.610213 206.484231 181.69862 C 205.100295 179.791891 198.862837 177.890026 196.431203 177.369567 C 194.004442 176.853972 185.169667 178.585593 185.169667 178.585593 Z M 185.169667 178.585593 " transform="matrix(0.801609,0,0,0.803077,0,0)"/>
<path style=" stroke:none;fill-rule:nonzero;fill:rgb(92.941176%,69.411765%,57.647059%);fill-opacity:1;" d="M 149.542969 143.96875 C 149.542969 143.96875 150.378906 150.648438 151.210938 152.039062 C 152.039062 153.429688 154.269531 158.027344 154.964844 158.027344 C 155.660156 158.027344 158.019531 150.648438 158.433594 149.539062 C 158.851562 148.425781 159.128906 144.527344 159.128906 144.527344 Z M 149.542969 143.96875 "/>
<path style="fill-rule:nonzero;fill:rgb(13.72549%,19.607843%,32.54902%);fill-opacity:1;stroke-width:0.3;stroke-linecap:round;stroke-linejoin:miter;stroke:rgb(13.72549%,19.607843%,32.54902%);stroke-opacity:1;stroke-miterlimit:10;" d="M 181.704954 169.051949 C 178.946828 169.75238 176.359257 170.987862 174.08356 172.695163 C 170.438545 175.457974 169.922006 182.914646 169.922006 182.914646 C 169.922006 182.914646 171.466751 183.955565 175.642924 181.69862 C 179.819098 179.441676 182.221494 175.80819 182.601589 173.196166 C 182.83062 171.751527 182.513874 170.272839 181.704954 169.051949 Z M 181.704954 169.051949 " transform="matrix(0.801609,0,0,0.803077,0,0)"/>
<path style="fill-rule:nonzero;fill:rgb(13.72549%,19.607843%,32.54902%);fill-opacity:1;stroke-width:0.3;stroke-linecap:round;stroke-linejoin:miter;stroke:rgb(13.72549%,19.607843%,32.54902%);stroke-opacity:1;stroke-miterlimit:10;" d="M 202.215471 169.051949 C 204.973597 169.75238 207.561167 170.987862 209.836865 172.695163 C 213.472134 175.457974 213.998419 182.914646 213.998419 182.914646 C 213.998419 182.914646 212.453674 183.955565 208.277501 181.69862 C 204.101327 179.441676 201.689185 175.80819 201.318836 173.196166 C 201.089805 171.751527 201.40655 170.272839 202.215471 169.051949 Z M 202.215471 169.051949 " transform="matrix(0.801609,0,0,0.803077,0,0)"/>
<path style="fill-rule:nonzero;fill:rgb(100%,74.509804%,61.568627%);fill-opacity:1;stroke-width:0.3;stroke-linecap:round;stroke-linejoin:miter;stroke:rgb(13.72549%,19.607843%,32.54902%);stroke-opacity:1;stroke-miterlimit:10;" d="M 181.704954 169.051949 C 181.704954 169.051949 178.410796 168.015894 179.107637 171.64938 C 179.804478 175.282866 183.60543 176.323785 183.60543 175.80819 C 183.60543 175.28773 181.704954 169.051949 181.704954 169.051949 Z M 181.704954 169.051949 " transform="matrix(0.801609,0,0,0.803077,0,0)"/>
<path style="fill-rule:nonzero;fill:rgb(100%,74.509804%,61.568627%);fill-opacity:1;stroke-width:0.3;stroke-linecap:round;stroke-linejoin:miter;stroke:rgb(13.72549%,19.607843%,32.54902%);stroke-opacity:1;stroke-miterlimit:10;" d="M 202.23009 169.051949 C 202.23009 169.051949 205.519374 168.015894 204.827406 171.64938 C 204.140311 175.282866 200.319868 176.323785 200.319868 175.80819 C 200.319868 175.28773 202.23009 169.051949 202.23009 169.051949 Z M 202.23009 169.051949 " transform="matrix(0.801609,0,0,0.803077,0,0)"/>
<path style=" stroke:none;fill-rule:nonzero;fill:rgb(100%,74.509804%,61.568627%);fill-opacity:1;" d="M 145.65625 135.761719 C 145.65625 135.761719 146.488281 141.882812 147.601562 143.554688 C 148.71875 145.222656 152.738281 148.003906 154.542969 148.148438 C 156.347656 148.289062 159.824219 145.664062 160.933594 143.695312 C 162.042969 141.726562 162.464844 131.308594 162.464844 130.894531 C 162.464844 130.476562 162.046875 127.410156 158.292969 124.90625 C 154.539062 122.40625 148.019531 122.960938 146.214844 126.4375 C 144.410156 129.914062 145.65625 135.761719 145.65625 135.761719 Z M 145.65625 135.761719 "/>
<path style=" stroke:none;fill-rule:nonzero;fill:rgb(13.72549%,19.607843%,32.54902%);fill-opacity:1;" d="M 150.558594 136.574219 C 151.054688 136.574219 151.457031 136.171875 151.457031 135.675781 C 151.457031 135.175781 151.054688 134.773438 150.558594 134.773438 C 150.0625 134.773438 149.660156 135.175781 149.660156 135.675781 C 149.660156 136.171875 150.0625 136.574219 150.558594 136.574219 Z M 150.558594 136.574219 "/>
<path style=" stroke:none;fill-rule:nonzero;fill:rgb(13.72549%,19.607843%,32.54902%);fill-opacity:1;" d="M 157.566406 136.574219 C 158.0625 136.574219 158.464844 136.171875 158.464844 135.675781 C 158.464844 135.175781 158.0625 134.773438 157.566406 134.773438 C 157.070312 134.773438 156.667969 135.175781 156.667969 135.675781 C 156.667969 136.171875 157.070312 136.574219 157.566406 136.574219 Z M 157.566406 136.574219 "/>
<path style="fill:none;stroke-width:0.3;stroke-linecap:round;stroke-linejoin:miter;stroke:rgb(13.72549%,19.607843%,32.54902%);stroke-opacity:1;stroke-miterlimit:10;" d="M 194.808489 173.692304 C 194.808489 173.692304 193.171156 174.820776 190.388665 173.789586 " transform="matrix(0.801609,0,0,0.803077,0,0)"/>
<path style="fill:none;stroke-width:0.3;stroke-linecap:round;stroke-linejoin:miter;stroke:rgb(13.72549%,19.607843%,32.54902%);stroke-opacity:1;stroke-miterlimit:10;" d="M 188.122714 176.343241 C 188.122714 176.343241 189.355586 177.987308 192.761823 177.68087 C 196.163187 177.369567 197.498393 175.516343 197.498393 175.516343 " transform="matrix(0.801609,0,0,0.803077,0,0)"/>
<path style="fill:none;stroke-width:0.3;stroke-linecap:round;stroke-linejoin:miter;stroke:rgb(13.72549%,19.607843%,32.54902%);stroke-opacity:1;stroke-miterlimit:10;" d="M 185.130683 165.84164 C 185.535143 165.369822 186.037064 164.990421 186.612079 164.742352 C 187.182222 164.494283 187.801095 164.377544 188.424841 164.401865 " transform="matrix(0.801609,0,0,0.803077,0,0)"/>
<path style="fill:none;stroke-width:0.3;stroke-linecap:round;stroke-linejoin:miter;stroke:rgb(13.72549%,19.607843%,32.54902%);stroke-opacity:1;stroke-miterlimit:10;" d="M 194.808489 164.504011 C 195.583298 164.445642 196.358108 164.552652 197.08906 164.820178 C 197.815139 165.087704 198.477869 165.506017 199.033393 166.050796 " transform="matrix(0.801609,0,0,0.803077,0,0)"/>
<path style="fill-rule:nonzero;fill:rgb(13.72549%,19.607843%,32.54902%);fill-opacity:1;stroke-width:0.3;stroke-linecap:round;stroke-linejoin:miter;stroke:rgb(13.72549%,19.607843%,32.54902%);stroke-opacity:1;stroke-miterlimit:10;" d="M 181.704954 169.051949 C 181.704954 169.051949 182.572351 167.665679 184.131715 165.238491 C 185.695953 162.811303 188.463825 157.786683 188.463825 157.786683 C 188.463825 157.786683 192.44995 162.427038 195.568679 163.50687 C 197.220631 164.037057 198.843345 164.674255 200.412456 165.408734 C 200.412456 165.408734 200.685344 169.051949 201.460154 169.051949 C 202.23009 169.051949 205.441406 163.336626 205.441406 158.312006 C 205.441406 153.287386 195.388378 146.351173 188.429714 148.948605 C 181.471049 151.546037 177.860146 156.055062 177.860146 160.213871 C 177.860146 164.37268 181.704954 169.051949 181.704954 169.051949 Z M 181.704954 169.051949 " transform="matrix(0.801609,0,0,0.803077,0,0)"/>
<path style=" stroke:none;fill-rule:nonzero;fill:rgb(100%,74.509804%,61.568627%);fill-opacity:1;" d="M 55.921875 156.769531 L 55.921875 161.117188 C 55.921875 161.117188 57.164062 164.179688 57.164062 165.152344 C 57.164062 166.128906 55.496094 170.859375 55.359375 171.832031 C 55.222656 172.808594 53.828125 172.527344 53.828125 171.96875 C 53.90625 170.582031 53.90625 169.1875 53.828125 167.796875 C 53.691406 165.847656 51.609375 166.964844 51.609375 166.964844 C 51.609375 166.964844 51.890625 171.273438 52.441406 172.390625 C 52.5625 172.636719 52.648438 172.894531 52.699219 173.164062 C 52.730469 173.359375 52.703125 173.5625 52.617188 173.746094 C 52.53125 173.925781 52.394531 174.078125 52.222656 174.179688 C 52.050781 174.285156 51.851562 174.332031 51.652344 174.320312 C 51.453125 174.308594 51.261719 174.238281 51.101562 174.117188 C 51.035156 174.054688 50.984375 173.976562 50.960938 173.886719 C 50.816406 173.335938 46.929688 171.109375 46.789062 170.546875 C 46.648438 168.371094 46.648438 166.1875 46.789062 164.011719 C 46.929688 162.203125 49.011719 156.074219 49.148438 155.660156 C 49.355469 155.183594 49.585938 154.71875 49.84375 154.269531 C 49.84375 154.269531 55.652344 153.710938 55.921875 156.769531 Z M 55.921875 156.769531 "/>
<path style=" stroke:none;fill-rule:nonzero;fill:rgb(0%,51.372549%,76.470588%);fill-opacity:1;" d="M 60.925781 90.535156 C 60.925781 90.535156 58.445312 90.953125 57.871094 94.292969 C 57.292969 97.632812 55.921875 123.652344 55.921875 123.652344 L 48.003906 156.355469 C 48.003906 156.355469 48.140625 155.246094 52.167969 155.660156 C 56.195312 156.078125 56.195312 157.746094 56.195312 157.746094 L 63.011719 135.902344 L 65.648438 127.832031 L 62.878906 90.121094 Z M 60.925781 90.535156 "/>
<path style=" stroke:none;fill-rule:nonzero;fill:rgb(92.941176%,10.980392%,14.117647%);fill-opacity:1;" d="M 83.707031 239.851562 C 82.777344 241.699219 81.507812 243.351562 79.957031 244.71875 C 77.597656 246.667969 74.820312 248.335938 75.621094 250.5625 C 76.417969 252.785156 80.203125 252.230469 82.4375 251.679688 C 84.667969 251.125 86.605469 249.59375 87.582031 249.035156 C 88.585938 248.296875 89.515625 247.464844 90.355469 246.550781 L 90.773438 239.875 Z M 83.707031 239.851562 "/>
<path style=" stroke:none;fill-rule:nonzero;fill:rgb(92.941176%,10.980392%,14.117647%);fill-opacity:1;" d="M 88.429688 242.632812 C 88.429688 242.632812 88.015625 252.09375 88.429688 252.652344 C 88.84375 253.210938 90.90625 253.628906 91.484375 254.042969 C 92.0625 254.460938 91.761719 255.433594 94.683594 255.996094 C 97.601562 256.550781 103.289062 257.519531 103.433594 253.511719 C 103.574219 249.5 98.289062 245.71875 98.289062 245.71875 L 98.011719 242.9375 Z M 88.429688 242.632812 "/>
<path style="fill-rule:nonzero;fill:rgb(13.72549%,19.607843%,32.54902%);fill-opacity:1;stroke-width:0.3;stroke-linecap:round;stroke-linejoin:miter;stroke:rgb(13.72549%,19.607843%,32.54902%);stroke-opacity:1;stroke-miterlimit:10;" d="M 128.506258 202.298102 C 126.605782 187.603643 125.908941 182.024515 125.908941 182.024515 L 82.422162 182.720082 C 82.422162 182.720082 79.128005 209.399695 79.8151 220.66496 C 80.502195 231.930226 80.857925 249.951733 83.806098 254.455894 C 86.749399 258.964919 98.361792 285.644531 99.916283 288.241963 C 101.470775 290.844259 103.005774 293.967014 102.689029 296.564446 C 102.459997 298.043133 102.703648 299.55587 103.38587 300.893499 L 110.344534 302.104661 L 110.861073 303.320687 C 110.861073 303.320687 114.155231 303.666038 116.757421 303.666038 C 119.349864 303.666038 122.644022 303.49093 122.644022 303.49093 C 122.907165 301.99765 123.082593 300.494642 123.170307 298.981906 C 123.170307 297.6005 122.994879 293.967014 122.994879 293.967014 C 122.994879 293.967014 127.322115 272.472537 127.15156 262.08281 C 126.981004 251.693082 127.672972 242.670169 128.189512 236.089036 C 128.706051 229.507902 130.416479 217.046067 128.506258 202.298102 Z M 104.940361 257.403541 C 104.258139 254.01326 103.220187 250.700805 101.85087 247.524545 L 104.940361 211.481531 L 106.48998 211.656639 C 106.48998 211.656639 107.70336 244.902793 107.70336 250.637572 C 107.70336 256.377215 109.94982 287.896612 109.94982 287.896612 C 109.94982 287.896612 105.807758 262.277374 104.940361 257.427862 Z M 104.940361 257.403541 " transform="matrix(0.801609,0,0,0.803077,0,0)"/>
<path style=" stroke:none;fill-rule:nonzero;fill:rgb(100%,74.509804%,61.568627%);fill-opacity:1;" d="M 112.878906 158.027344 C 112.878906 158.027344 111.636719 162.476562 111.636719 164.425781 C 111.636719 166.375 114 169.300781 114 169.300781 C 114 169.300781 114.972656 170.132812 114.972656 168.460938 C 114.972656 166.792969 116.148438 168.808594 116.148438 168.808594 C 116.148438 168.808594 114.558594 170.414062 116.917969 171.109375 C 119.28125 171.804688 122.886719 169.019531 123.445312 167.769531 C 124.003906 166.511719 121.363281 158.585938 121.082031 157.609375 C 120.820312 156.863281 120.445312 156.160156 119.972656 155.523438 C 119.972656 155.523438 114.265625 154.269531 112.878906 158.027344 Z M 112.878906 158.027344 "/>
<path style=" stroke:none;fill-rule:nonzero;fill:rgb(0%,51.372549%,76.470588%);fill-opacity:1;" d="M 106.066406 90.398438 C 106.066406 90.398438 112.597656 92.484375 113.015625 95.410156 C 113.429688 98.335938 114.253906 126.296875 114.253906 126.296875 L 114.390625 130.199219 L 120.644531 157.050781 C 119.050781 156.660156 117.417969 156.472656 115.777344 156.496094 C 113.695312 156.632812 112.585938 158.980469 112.585938 158.980469 C 112.585938 158.980469 102.050781 136.4375 102.050781 133.375 C 102.050781 130.316406 106.066406 90.398438 106.066406 90.398438 Z M 106.066406 90.398438 "/>
<path style="fill-rule:nonzero;fill:rgb(92.941176%,10.980392%,14.117647%);fill-opacity:1;stroke-width:0.3;stroke-linecap:round;stroke-linejoin:miter;stroke:rgb(13.72549%,19.607843%,32.54902%);stroke-opacity:1;stroke-miterlimit:10;" d="M 106.675154 102.000269 C 106.675154 102.000269 83.801225 110.502724 82.938702 113.085563 C 82.071305 115.668403 82.071305 186.061722 82.071305 186.061722 C 88.143081 187.598779 94.36592 188.469453 100.627744 188.659153 C 111.197311 189.004505 126.098989 185.88175 126.098989 185.88175 C 126.098989 185.88175 130.250797 136.671606 131.127939 130.085608 C 132.000209 123.499611 133.198971 118.830071 131.990463 114.841505 C 130.786828 110.852939 117.590706 103.381675 113.780009 101.791113 C 112.639724 101.338751 111.426343 101.124731 110.203216 101.158779 C 108.98009 101.197692 107.781328 101.47981 106.675154 102.000269 Z M 106.675154 102.000269 " transform="matrix(0.801609,0,0,0.803077,0,0)"/>
<path style=" stroke:none;fill-rule:nonzero;fill:rgb(0%,51.372549%,76.470588%);fill-opacity:1;" d="M 107.460938 109.179688 C 107.460938 109.179688 104.820312 139.9375 104.820312 142.707031 C 104.820312 145.476562 110.398438 166.363281 110.398438 166.363281 C 110.398438 166.363281 101.101562 169.425781 100.675781 167.195312 C 100.246094 164.964844 97.339844 134.636719 96.648438 124.480469 C 95.953125 114.320312 95.539062 87.460938 95.539062 87.460938 C 95.539062 87.460938 94.84375 83.738281 95.671875 83.84375 C 96.503906 83.949219 104.847656 89.828125 107.0625 91.082031 C 108.367188 91.789062 109.394531 92.917969 109.984375 94.28125 "/>
<path style=" stroke:none;fill-rule:nonzero;fill:rgb(100%,74.509804%,61.568627%);fill-opacity:1;" d="M 85.09375 74.808594 C 85.09375 74.808594 84.121094 83.160156 84.121094 85.363281 C 84.121094 87.566406 86.898438 92.195312 90.652344 92.738281 C 94.410156 93.285156 97.59375 88.144531 97.738281 87.3125 C 97.878906 86.480469 86.066406 73.121094 86.066406 73.121094 Z M 85.09375 74.808594 "/>
<path style="fill-rule:nonzero;fill:rgb(100%,74.509804%,61.568627%);fill-opacity:1;stroke-width:0.3;stroke-linecap:round;stroke-linejoin:miter;stroke:rgb(13.72549%,19.607843%,32.54902%);stroke-opacity:1;stroke-miterlimit:10;" d="M 134.68524 83.03999 C 133.803224 89.188218 132.575225 95.278077 130.996368 101.285246 C 128.676813 109.636913 128.082306 110.804298 123.428577 111.772255 C 118.769975 112.735348 114.296548 109.826613 111.197311 105.949922 C 108.098074 102.068367 107.50844 95.462913 107.50844 95.462913 L 105.759027 92.549315 L 104.789298 90.608537 C 104.789298 90.608537 104.399457 79.352999 105.759027 73.72523 C 107.118598 68.097462 111.387359 64.206178 123.033863 65.373563 C 134.675494 66.540948 137.78935 74.304059 137.599302 77.99105 C 137.57981 79.012512 137.306922 80.009653 136.795255 80.89492 C 136.283589 81.780187 135.557509 82.514667 134.68524 83.03999 Z M 134.68524 83.03999 " transform="matrix(0.801609,0,0,0.803077,0,0)"/>
<path style=" stroke:none;fill-rule:nonzero;fill:rgb(100%,74.509804%,61.568627%);fill-opacity:1;" d="M 87.109375 73.238281 C 87.109375 73.238281 86.488281 70.269531 84.460938 70.433594 C 82.4375 70.59375 82.753906 74.324219 84.152344 76.355469 C 85.554688 78.386719 86.800781 75.882812 86.800781 75.882812 "/>
<path style="fill-rule:nonzero;fill:rgb(13.72549%,19.607843%,32.54902%);fill-opacity:1;stroke-width:0.3;stroke-linecap:round;stroke-linejoin:miter;stroke:rgb(13.72549%,19.607843%,32.54902%);stroke-opacity:1;stroke-miterlimit:10;" d="M 137.599302 77.99105 C 137.794223 74.304059 134.68524 66.540948 123.033863 65.373563 C 111.382486 64.206178 107.113725 68.087733 105.759027 73.72523 C 104.818536 77.592193 104.716202 84.183055 104.740568 87.879774 C 105.949075 87.612249 107.367122 87.534423 107.893408 88.478059 C 108.668217 89.927562 108.034725 93.940448 107.786201 97.374506 C 108.190662 99.626586 109.140899 103.381675 111.197311 105.949922 C 114.286802 109.812021 118.765102 112.745076 123.428577 111.772255 C 127.741195 110.872396 128.559861 109.797429 130.509067 103.012003 C 129.875575 102.160785 129.081274 101.445761 128.160274 100.91071 C 127.244147 100.380523 126.225687 100.040035 125.173116 99.918433 C 121.094403 99.52444 114.886183 102.632603 114.886183 102.632603 C 114.886183 102.632603 112.162168 100.691825 111.197311 98.361919 C 110.227582 96.036877 110.222709 90.593945 110.802597 89.042295 C 111.382486 87.485782 112.347343 87.68521 113.521739 85.35044 C 114.696136 83.01567 113.521739 81.279185 115.656119 79.168163 C 117.7905 77.057142 121.839974 77.032821 124.778402 79.168163 C 125.738386 79.868594 126.776338 80.447423 127.872766 80.899784 C 129.261575 81.454292 130.75759 81.692634 132.248733 81.60508 L 134.266161 81.493205 L 134.651129 83.03999 C 135.533144 82.519531 136.268969 81.785051 136.780636 80.899784 C 137.297175 80.014517 137.57981 79.017376 137.599302 77.99105 Z M 137.599302 77.99105 " transform="matrix(0.801609,0,0,0.803077,0,0)"/>
<path style="fill:none;stroke-width:0.3;stroke-linecap:round;stroke-linejoin:miter;stroke:rgb(13.72549%,19.607843%,32.54902%);stroke-opacity:1;stroke-miterlimit:10;" d="M 127.692464 91.581358 C 127.692464 91.581358 128.467274 97.598255 127.112576 99.539033 C 125.762751 101.47981 124.198513 100.900982 123.813545 99.733597 L 123.428577 98.571076 " transform="matrix(0.801609,0,0,0.803077,0,0)"/>
<path style="fill:none;stroke-width:0.3;stroke-linecap:round;stroke-linejoin:miter;stroke:rgb(100%,74.509804%,61.568627%);stroke-opacity:1;stroke-miterlimit:10;" d="M 126.527814 103.036324 C 126.527814 103.036324 123.43345 104.393409 119.344991 101.679239 " transform="matrix(0.801609,0,0,0.803077,0,0)"/>
<path style=" stroke:none;fill-rule:nonzero;fill:rgb(13.72549%,19.607843%,32.54902%);fill-opacity:1;" d="M 97.992188 74.152344 C 97.863281 74.734375 97.484375 75.15625 97.148438 75.082031 C 96.8125 75.007812 96.648438 74.460938 96.769531 73.882812 C 96.894531 73.308594 97.277344 72.878906 97.613281 72.945312 C 97.949219 73.015625 98.117188 73.5625 97.992188 74.152344 Z M 97.992188 74.152344 "/>
<path style=" stroke:none;fill-rule:nonzero;fill:rgb(13.72549%,19.607843%,32.54902%);fill-opacity:1;" d="M 104.699219 75.3125 C 104.589844 75.933594 104.230469 76.335938 103.890625 76.273438 C 103.550781 76.210938 103.363281 75.683594 103.46875 75.09375 C 103.574219 74.503906 103.933594 74.070312 104.277344 74.125 C 104.617188 74.183594 104.800781 74.714844 104.699219 75.3125 Z M 104.699219 75.3125 "/>
<path style="fill:none;stroke-width:0.3;stroke-linecap:round;stroke-linejoin:miter;stroke:rgb(13.72549%,19.607843%,32.54902%);stroke-opacity:1;stroke-miterlimit:10;" d="M 118.643277 89.022839 C 119.471689 88.648303 120.37807 88.463467 121.294197 88.482923 C 122.20545 88.497516 123.106958 88.721264 123.920751 89.134713 " transform="matrix(0.801609,0,0,0.803077,0,0)"/>
<path style="fill:none;stroke-width:0.3;stroke-linecap:round;stroke-linejoin:miter;stroke:rgb(13.72549%,19.607843%,32.54902%);stroke-opacity:1;stroke-miterlimit:10;" d="M 128.082306 90.015116 C 128.082306 90.015116 131.27413 89.679493 132.477764 91.221414 " transform="matrix(0.801609,0,0,0.803077,0,0)"/>
<path style="fill:none;stroke-width:0.3;stroke-linecap:round;stroke-linejoin:miter;stroke:rgb(13.72549%,19.607843%,32.54902%);stroke-opacity:1;stroke-miterlimit:10;" d="M 121.372165 95.618564 C 123.311625 95.618564 124.885608 94.042595 124.885608 92.101817 C 124.885608 90.161039 123.311625 88.585069 121.372165 88.585069 C 119.427832 88.585069 117.853849 90.161039 117.853849 92.101817 C 117.853849 94.042595 119.427832 95.618564 121.372165 95.618564 Z M 121.372165 95.618564 " transform="matrix(0.801609,0,0,0.803077,0,0)"/>
<path style="fill:none;stroke-width:0.3;stroke-linecap:round;stroke-linejoin:miter;stroke:rgb(13.72549%,19.607843%,32.54902%);stroke-opacity:1;stroke-miterlimit:10;" d="M 134.68524 93.755612 C 134.68524 94.456043 134.4757 95.137018 134.090732 95.715847 C 133.700891 96.294675 133.15024 96.747037 132.507003 97.014562 C 131.858892 97.282088 131.152305 97.350186 130.46521 97.213991 C 129.782988 97.077796 129.154369 96.742173 128.662194 96.246034 C 128.17002 95.754759 127.833782 95.122426 127.697337 94.441451 C 127.565766 93.755612 127.633988 93.045453 127.902004 92.403391 C 128.17002 91.756466 128.62321 91.206822 129.203099 90.822557 C 129.787861 90.433429 130.470083 90.229137 131.166924 90.229137 C 131.62986 90.229137 132.087923 90.321555 132.511876 90.501527 C 132.940701 90.676634 133.330542 90.934432 133.657034 91.265191 C 133.983526 91.591086 134.241796 91.980214 134.417224 92.408256 C 134.592653 92.836297 134.68524 93.293523 134.68524 93.755612 Z M 134.68524 93.755612 " transform="matrix(0.801609,0,0,0.803077,0,0)"/>
<path style="fill:none;stroke-width:0.3;stroke-linecap:round;stroke-linejoin:miter;stroke:rgb(13.72549%,19.607843%,32.54902%);stroke-opacity:1;stroke-miterlimit:10;" d="M 124.671196 91.552173 C 124.671196 91.552173 127.083338 91.362473 128.082306 92.432576 " transform="matrix(0.801609,0,0,0.803077,0,0)"/>
<path style="fill:none;stroke-width:0.3;stroke-linecap:round;stroke-linejoin:miter;stroke:rgb(13.72549%,19.607843%,32.54902%);stroke-opacity:1;stroke-miterlimit:10;" d="M 117.853849 91.114404 L 107.893408 88.478059 " transform="matrix(0.801609,0,0,0.803077,0,0)"/>
<path style=" stroke:none;fill-rule:nonzero;fill:rgb(0%,51.372549%,76.470588%);fill-opacity:1;" d="M 61.761719 98.472656 L 64.402344 128.527344 C 64.402344 128.527344 64.257812 135.355469 63.980469 137.574219 C 63.699219 139.789062 59.816406 160.804688 59.816406 160.804688 L 68.703125 164.984375 C 68.703125 164.984375 77.316406 130.332031 78 123.515625 C 78.679688 116.699219 81.054688 83.160156 81.054688 83.160156 C 81.054688 83.160156 61.636719 89.5625 60.925781 90.535156 C 60.210938 91.511719 60.644531 93.179688 60.644531 93.179688 "/>
<path style=" stroke:none;fill-rule:nonzero;fill:rgb(92.941176%,10.980392%,14.117647%);fill-opacity:1;" d="M 226.539062 239.714844 C 226.539062 239.714844 225.300781 246.144531 224.511719 249.277344 C 223.726562 252.40625 222.230469 254.691406 224.003906 255.703125 C 225.777344 256.714844 230.257812 257.054688 232.195312 256.042969 C 234.136719 255.03125 233.714844 251.386719 233.714844 248.34375 C 233.644531 245.910156 233.4375 243.480469 233.097656 241.066406 Z M 226.539062 239.714844 "/>
<path style=" stroke:none;fill-rule:nonzero;fill:rgb(92.941176%,10.980392%,14.117647%);fill-opacity:1;" d="M 211.421875 235.996094 C 211.421875 235.996094 209.824219 241.746094 208.894531 243.695312 C 207.964844 245.644531 206.191406 247.582031 206.527344 248.660156 C 206.863281 249.742188 209.738281 250.945312 212.863281 250.1875 C 215.984375 249.429688 217.335938 245.453125 217.503906 244.097656 C 217.671875 242.746094 218.433594 241.558594 219.273438 239.527344 C 220.117188 237.496094 218.773438 235.554688 217.757812 234.113281 C 216.742188 232.675781 211.421875 235.996094 211.421875 235.996094 Z M 211.421875 235.996094 "/>
<path style=" stroke:none;fill-rule:nonzero;fill:rgb(13.72549%,19.607843%,32.54902%);fill-opacity:1;" d="M 202.832031 152.183594 C 202.832031 152.183594 200.429688 170.363281 199.871094 180.570312 C 199.3125 190.777344 200.617188 202.835938 201.539062 204.878906 C 202.460938 206.921875 209.875 232.890625 210.433594 233.816406 C 210.988281 234.742188 210.617188 236.789062 212.289062 237.34375 C 213.964844 237.894531 217.476562 236.96875 218.59375 234.375 L 218.40625 228.789062 L 217.292969 225.8125 C 217.292969 225.8125 216.925781 210.042969 215.261719 205.21875 C 214.570312 203.082031 213.769531 200.984375 212.855469 198.9375 L 219.523438 172.238281 C 219.523438 172.238281 221.5625 201.367188 223.042969 204.894531 C 224.523438 208.421875 225.078125 230.3125 225.820312 233.835938 C 226.265625 235.972656 226.511719 238.148438 226.558594 240.328125 C 227.730469 241.210938 229.167969 241.671875 230.636719 241.632812 L 233.226562 241.632812 C 233.226562 241.632812 235.824219 223.261719 236.746094 218.4375 C 237.667969 213.613281 235.636719 200.996094 236.007812 197.105469 C 236.378906 193.210938 235.824219 189.125 236.1875 186.339844 C 236.554688 183.550781 239.523438 164.257812 239.707031 160.734375 C 239.796875 158.132812 239.738281 155.53125 239.523438 152.941406 Z M 202.832031 152.183594 "/>
<path style="fill-rule:nonzero;fill:rgb(13.72549%,19.607843%,32.54902%);fill-opacity:1;stroke-width:0.3;stroke-linecap:round;stroke-linejoin:miter;stroke:rgb(13.72549%,19.607843%,32.54902%);stroke-opacity:1;stroke-miterlimit:10;" d="M 289.232886 120.420633 C 285.904617 119.034363 282.332698 118.333932 278.73154 118.363117 C 272.547685 118.363117 262.109689 120.435225 260.642911 121.150248 C 259.171261 121.860408 255.487262 194.126407 255.487262 194.126407 C 255.487262 194.126407 266.393068 200.308684 273.395589 199.262901 C 280.402984 198.221983 289.632473 194.744148 289.632473 194.744148 L 289.22314 122.278721 Z M 289.232886 120.420633 " transform="matrix(0.801609,0,0,0.803077,0,0)"/>
<path style="fill-rule:nonzero;fill:rgb(13.72549%,19.607843%,32.54902%);fill-opacity:1;stroke-width:0.3;stroke-linecap:round;stroke-linejoin:miter;stroke:rgb(13.72549%,19.607843%,32.54902%);stroke-opacity:1;stroke-miterlimit:10;" d="M 261.783197 76.050272 C 261.783197 76.050272 252.972787 80.943561 251.832502 87.47119 C 250.697089 93.993954 254.926866 95.394816 254.863516 97.744178 C 254.80504 100.098405 247.860995 113.207166 249.084122 117.127634 C 250.302375 121.048102 265.204053 127.176874 277.396334 125.955984 C 289.583743 124.735093 298.803486 120.586012 299.402866 113.48442 C 300.00712 106.387692 292.556281 101.115002 292.293139 98.833737 C 292.029996 96.557337 297.643708 89.494657 293.677075 83.375614 C 289.710441 77.251706 274.077811 71.526655 270.072194 71.979017 C 266.066576 72.426515 261.783197 76.050272 261.783197 76.050272 Z M 261.783197 76.050272 " transform="matrix(0.801609,0,0,0.803077,0,0)"/>
<path style=" stroke:none;fill-rule:nonzero;fill:rgb(0%,51.372549%,76.470588%);fill-opacity:1;" d="M 229.378906 93.238281 L 241.585938 98.855469 L 238.265625 126.304688 L 243.878906 163.992188 C 243.878906 163.992188 236.78125 166.972656 230.679688 167.632812 C 230.679688 167.632812 227.871094 146.472656 227.871094 140.355469 C 227.871094 134.238281 228.535156 96.546875 228.535156 96.546875 L 228.535156 93.40625 Z M 229.378906 93.238281 "/>
<path style=" stroke:none;fill-rule:nonzero;fill:rgb(0%,51.372549%,76.470588%);fill-opacity:1;" d="M 210.796875 94.011719 C 210.796875 94.011719 195.519531 96.496094 194.960938 98.742188 C 194.40625 100.992188 192.484375 129.640625 192.484375 129.640625 C 190.628906 136 190.097656 142.671875 190.929688 149.246094 C 190.929688 149.246094 195.390625 146.910156 197.914062 150.214844 C 197.914062 150.214844 196.753906 163.253906 197.335938 164.027344 C 197.917969 164.804688 207.042969 168.308594 207.042969 168.308594 C 207.042969 168.308594 209.953125 122.984375 209.953125 115.601562 C 209.953125 108.21875 210.796875 94.011719 210.796875 94.011719 Z M 210.796875 94.011719 "/>
<path style=" stroke:none;fill-rule:nonzero;fill:rgb(100%,100%,100%);fill-opacity:1;" d="M 198.1875 113.074219 L 200.992188 128.453125 L 197.902344 150.222656 "/>
<path style=" stroke:none;fill-rule:nonzero;fill:rgb(0%,51.372549%,76.470588%);fill-opacity:1;" d="M 239.757812 98.191406 C 239.757812 98.191406 243.128906 99.296875 244.554688 101.996094 C 245.175781 103.175781 249.179688 127.628906 249.511719 130.433594 C 249.847656 133.242188 243.738281 153.582031 243.738281 153.582031 C 243.738281 153.582031 241.097656 151.59375 239.945312 151.433594 C 239.179688 151.335938 238.414062 151.285156 237.644531 151.285156 C 237.644531 151.285156 238.796875 131.773438 238.964844 131.277344 C 239.132812 130.78125 239.09375 113.085938 239.09375 113.085938 "/>
<path style=" stroke:none;fill-rule:nonzero;fill:rgb(100%,100%,100%);fill-opacity:1;" d="M 239.9375 130.929688 C 239.9375 130.929688 243.898438 128.949219 246.042969 130.433594 Z M 239.9375 130.929688 "/>
<path style="fill:none;stroke-width:0.3;stroke-linecap:round;stroke-linejoin:miter;stroke:rgb(13.72549%,19.607843%,32.54902%);stroke-opacity:1;stroke-miterlimit:10;" d="M 299.320025 163.035051 C 299.320025 163.035051 304.261261 160.568951 306.936546 162.41731 " transform="matrix(0.801609,0,0,0.803077,0,0)"/>
<path style=" stroke:none;fill-rule:nonzero;fill:rgb(100%,74.509804%,61.176471%);fill-opacity:1;" d="M 237.644531 151.28125 C 237.644531 151.28125 235.003906 156.910156 235.003906 158.390625 C 235.003906 159.875 235.332031 162.527344 235.332031 163.683594 C 235.332031 164.835938 236.980469 164.507812 236.980469 164.507812 C 236.980469 164.507812 236.980469 167.488281 238.300781 167.320312 C 239.621094 167.152344 240.285156 165.171875 241.4375 164.179688 C 242.589844 163.183594 244.410156 160.378906 244.410156 158.722656 C 244.304688 157 244.082031 155.289062 243.75 153.597656 C 243.75 153.597656 241.585938 150.109375 237.644531 151.28125 Z M 237.644531 151.28125 "/>
<path style="fill-rule:nonzero;fill:rgb(92.941176%,10.980392%,14.117647%);fill-opacity:1;stroke-width:0.3;stroke-linecap:round;stroke-linejoin:miter;stroke:rgb(13.72549%,19.607843%,32.54902%);stroke-opacity:1;stroke-miterlimit:10;" d="M 268.556686 121.918777 L 267.002195 159.153496 L 276.002652 161.483402 L 275.539716 122.701898 Z M 268.556686 121.918777 " transform="matrix(0.801609,0,0,0.803077,0,0)"/>
<path style="fill-rule:nonzero;fill:rgb(92.941176%,10.980392%,14.117647%);fill-opacity:1;stroke-width:0.3;stroke-linecap:round;stroke-linejoin:miter;stroke:rgb(13.72549%,19.607843%,32.54902%);stroke-opacity:1;stroke-miterlimit:10;" d="M 273.366351 125.338242 L 273.366351 167.218181 L 284.218554 165.982699 L 280.968254 123.47529 Z M 273.366351 125.338242 " transform="matrix(0.801609,0,0,0.803077,0,0)"/>
<path style=" stroke:none;fill-rule:nonzero;fill:rgb(92.941176%,10.980392%,14.117647%);fill-opacity:1;" d="M 213.289062 87.953125 C 213.289062 87.953125 209.308594 88.207031 209.308594 89.324219 C 209.308594 90.441406 208.1875 95.429688 208.933594 97.296875 C 209.675781 99.167969 214.03125 101.023438 219.257812 101.023438 C 224.480469 101.023438 229.574219 97.035156 230.070312 96.675781 C 230.566406 96.316406 230.691406 94.191406 230.441406 93.683594 C 230.195312 93.175781 229.328125 88.582031 228.082031 87.953125 C 226.835938 87.324219 219.132812 88.207031 217.390625 88.332031 C 216.011719 88.363281 214.636719 88.234375 213.289062 87.953125 Z M 213.289062 87.953125 "/>
<path style=" stroke:none;fill-rule:nonzero;fill:rgb(92.941176%,69.411765%,57.647059%);fill-opacity:1;" d="M 213.164062 87.449219 C 213.164062 87.449219 212.910156 90.070312 214.15625 91.3125 C 215.402344 92.554688 222.113281 91.683594 223.980469 89.945312 C 225.84375 88.207031 225.347656 85.457031 225.347656 85.457031 C 225.347656 85.457031 217.019531 88.574219 213.164062 87.449219 Z M 213.164062 87.449219 "/>
<path style=" stroke:none;fill-rule:nonzero;fill:rgb(100%,74.509804%,61.176471%);fill-opacity:1;" d="M 213.703125 65.898438 C 213.703125 65.898438 211.167969 70.160156 209.636719 71.761719 C 208.886719 72.507812 208.203125 73.324219 207.597656 74.195312 C 207.597656 74.195312 208.164062 82.546875 209.695312 85.371094 C 211.226562 88.195312 214.089844 90.65625 218.011719 89.972656 C 221.933594 89.289062 225.09375 85.054688 225.199219 83.140625 C 225.304688 81.230469 224.550781 75.070312 224.550781 75.070312 C 224.550781 75.070312 215.371094 73.207031 213.703125 65.898438 Z M 213.703125 65.898438 "/>
<path style="fill:none;stroke-width:0.3;stroke-linecap:round;stroke-linejoin:miter;stroke:rgb(13.72549%,19.607843%,32.54902%);stroke-opacity:1;stroke-miterlimit:10;" d="M 265.65237 92.996812 C 265.671862 94.193382 265.788814 95.380223 265.998354 96.557337 C 266.237132 97.150757 264.156355 100.112997 265.998354 100.944759 C 267.114274 101.45549 268.327655 101.718151 269.555654 101.718151 " transform="matrix(0.801609,0,0,0.803077,0,0)"/>
<path style="fill:none;stroke-width:0.3;stroke-linecap:round;stroke-linejoin:miter;stroke:rgb(13.72549%,19.607843%,32.54902%);stroke-opacity:1;stroke-miterlimit:10;" d="M 265.077354 104.364224 C 265.077354 104.364224 266.129925 105.137617 269.224289 104.865227 C 272.31378 104.597701 273.507669 103.002275 273.507669 103.002275 " transform="matrix(0.801609,0,0,0.803077,0,0)"/>
<path style=" stroke:none;fill-rule:nonzero;fill:rgb(13.72549%,19.607843%,32.54902%);fill-opacity:1;" d="M 211.207031 76.574219 C 211.273438 77.050781 211.082031 77.472656 210.773438 77.515625 C 210.464844 77.558594 210.152344 77.207031 210.097656 76.734375 C 210.042969 76.261719 210.222656 75.835938 210.53125 75.789062 C 210.839844 75.746094 211.136719 76.09375 211.207031 76.574219 Z M 211.207031 76.574219 "/>
<path style=" stroke:none;fill-rule:nonzero;fill:rgb(13.72549%,19.607843%,32.54902%);fill-opacity:1;" d="M 217.8125 75.628906 C 217.882812 76.105469 217.6875 76.527344 217.386719 76.574219 C 217.082031 76.617188 216.765625 76.261719 216.710938 75.789062 C 216.652344 75.316406 216.832031 74.890625 217.136719 74.847656 C 217.441406 74.804688 217.71875 75.152344 217.8125 75.628906 Z M 217.8125 75.628906 "/>
<path style="fill:none;stroke-width:0.3;stroke-linecap:round;stroke-linejoin:miter;stroke:rgb(13.72549%,19.607843%,32.54902%);stroke-opacity:1;stroke-miterlimit:10;" d="M 260.184848 93.152463 C 260.613673 92.573635 261.247165 92.184507 261.953752 92.053176 C 262.665212 91.921845 263.396164 92.062904 264.005291 92.452032 " transform="matrix(0.801609,0,0,0.803077,0,0)"/>
<path style="fill:none;stroke-width:0.3;stroke-linecap:round;stroke-linejoin:miter;stroke:rgb(13.72549%,19.607843%,32.54902%);stroke-opacity:1;stroke-miterlimit:10;" d="M 267.445639 92.432576 C 267.445639 92.432576 269.765194 89.115257 273.458939 91.732145 " transform="matrix(0.801609,0,0,0.803077,0,0)"/>
<path style=" stroke:none;fill-rule:nonzero;fill:rgb(100%,74.509804%,61.176471%);fill-opacity:1;" d="M 190.910156 149.246094 L 189.671875 153.21875 C 189.671875 153.21875 188.746094 156.058594 188.828125 156.890625 C 188.90625 157.722656 191.304688 161.113281 193.246094 162.277344 C 195.183594 163.445312 198.097656 162.28125 198.679688 161.304688 C 199.265625 160.328125 198.289062 157.800781 198.289062 157.800781 C 198.289062 157.800781 199.648438 155.859375 199.847656 154.882812 C 200.042969 153.910156 197.898438 150.214844 197.898438 150.214844 C 197.898438 150.214844 195.570312 146.316406 190.910156 149.246094 Z M 190.910156 149.246094 "/>
</g>
</svg>
